<svg xmlns="http://www.w3.org/2000/svg" xmlns:xlink="http://www.w3.org/1999/xlink" width="31" height="32"><defs><path id="a" d="M0 .335h30.605v30.604H0z"/></defs><g fill="none" fill-rule="evenodd"><path fill="#FFF" d="M15.303 1.128c-8.172 0-14.82 6.648-14.82 14.82 0 8.17 6.648 14.818 14.82 14.818 8.171 0 14.819-6.647 14.819-14.819 0-8.171-6.648-14.819-14.819-14.819m0 29.96c-8.35 0-15.142-6.792-15.142-15.14C.161 7.597 6.954.805 15.303.805s15.141 6.792 15.141 15.141S23.652 31.09 15.303 31.09"/><g transform="translate(0 .31)"><mask id="b" fill="#fff"><use xlink:href="#a"/></mask><path fill="#FFF" d="M15.303.979C7.221.979.645 7.555.645 15.637c0 8.083 6.576 14.658 14.658 14.658s14.658-6.575 14.658-14.658C29.96 7.555 23.385.98 15.303.98M.323 15.637c0 8.26 6.72 14.98 14.98 14.98 8.26 0 14.98-6.72 14.98-14.98 0 8.26-6.72 14.98-14.98 14.98-8.26 0-14.98-6.72-14.98-14.98m14.98 15.302C6.865 30.94 0 24.075 0 15.637 0 7.2 6.865.334 15.303.334S30.605 7.2 30.605 15.637 23.741 30.94 15.303 30.94" mask="url(#b)"/></g><path fill="#FFF" d="M8.666 9.08h.603l1.971 3.704 1.972-3.703h.603v5.31h-.603V10.38l-1.972 3.704-1.97-3.704v4.012h-.604zm9.76.62v1.746h2.884v.572h-2.884v1.848h3.2v.572h-3.81v-5.31h3.81v.571zM8.99 17.456h.604l3.293 4.322v-4.322h.603v5.311h-.603l-3.293-4.321v4.321h-.603zm8.512 3.062V17.41h.603v3.108c0 1.02.672 1.746 1.615 1.746s1.616-.726 1.616-1.746V17.41h.604v3.108c0 1.345-.92 2.296-2.22 2.296-1.298 0-2.218-.951-2.218-2.296"/></g></svg>