<svg xmlns="http://www.w3.org/2000/svg" xmlns:xlink="http://www.w3.org/1999/xlink" width="39" height="124" viewBox="0 0 39 124"><defs><path id="a" d="M9.213.076v11.067H.086V.076h9.127z"/></defs><g fill="none" fill-rule="evenodd"><path stroke="#212121" stroke-linecap="square" stroke-width=".5" d="M20.25.496v75.07"/><path fill="#030404" d="M27.394 123.1v.005a.53.53 0 0 1-.529.53h-8.404a.529.529 0 0 1-.53-.53v-.002a.53.53 0 0 1 .385-.51l1.718-.488a.684.684 0 0 0 .496-.657v-12.235c0-.753-1.04-.952-1.316-.252l-5.763 14.532a.682.682 0 0 1-.634.431h-.43a.682.682 0 0 1-.629-.42l-6.18-14.84c-.287-.69-1.312-.485-1.312.262v12.551c0 .307.204.576.5.658l1.648.46a.53.53 0 0 1-.142 1.04H.529a.529.529 0 0 1-.142-1.04l1.649-.46a.684.684 0 0 0 .499-.658v-17.212a.683.683 0 0 0-.5-.659l-1.648-.46a.53.53 0 0 1 .142-1.04h6.455c.277 0 .526.168.631.425l5.668 13.854a.681.681 0 0 0 1.264-.006l5.523-13.842a.682.682 0 0 1 .633-.43h5.617a.53.53 0 0 1 .529.529v.028a.53.53 0 0 1-.352.5l-1.183.42a.683.683 0 0 0-.454.644v17.223c0 .304.2.571.492.656l1.662.484a.53.53 0 0 1 .38.51m9.55-13.337c-.333 0-.333.5 0 .5s.334-.5 0-.5m-.965-.044c-.104.016-.278.074-.416-.044-.193.445-.743.836-.853.378.09-.238.218-.452.386-.641.137-.18.318-.304.543-.37a.22.22 0 0 0-.005.056.18.18 0 0 0-.059.022c-.24.147-.22.427-.012.555 0 0 .154.104.416.044a4.05 4.05 0 0 0 .067-.37l.006-.05.003-.047v-.01l-.056.018c-.015.002-.027.007-.041.01a.182.182 0 0 0 .077-.118c.137-.613-.499-.664-.882-.369-.427.329-1.052 1.093-.9 1.685.215.846 1.375-.02 1.721-.729l.005-.02"/><g transform="translate(29.582 102.031)"><mask id="b" fill="#fff"><use xlink:href="#a"/></mask><path fill="#030404" d="M8.621 1.124c-.484.726-1.357 1.253-2.13 1.612-.923.428-1.924.665-2.919.852l-.04.008c.886-1.018 1.944-1.956 3.11-2.555.37-.19.76-.34 1.162-.438.433-.106 1.287-.182.817.521m.466-.77c-.23-.3-.628-.303-.97-.256C6.02.384 4.262 2.09 2.948 3.625l-.067.08c-.829.122-1.678.15-2.46-.186-.255-.11-.478.266-.22.376.743.32 1.516.363 2.296.291C1.381 5.661.43 7.64.997 9.454c.313.997 1.21 1.611 2.234 1.683 1.1.077 2.108-.53 2.835-1.307.192-.205-.115-.514-.308-.308-.577.616-1.327 1.125-2.194 1.18-.879.056-1.77-.38-2.1-1.229-.64-1.652.347-3.646 1.32-4.951.103-.138.21-.275.319-.412l.12-.019c1.142-.188 2.29-.446 3.352-.917.895-.397 1.864-1.001 2.423-1.83.194-.288.323-.685.09-.99" mask="url(#b)"/></g><path fill="#030404" d="M36.036 109.631a3.672 3.672 0 0 0 2.627-1.274c.171-.199-.117-.489-.289-.29a3.264 3.264 0 0 1-2.338 1.155c-.261.014-.263.422 0 .409"/></g></svg>