<svg xmlns="http://www.w3.org/2000/svg" width="13" height="17"><path fill="#3B84AF" d="M12.711 4.803l-.913.346c.13-.504.234-1.062.234-1.699C12.032 1.54 10.518 0 8.64 0 6.76 0 5.247 1.54 5.247 3.45c0 .611.078 1.195.234 1.699l-1.07-.346L.233 6.396C.08 6.422 0 6.528 0 6.634V16.72c0 .168.186.33.365.238l4.072-1.538 4.073 1.565c.032.006.071.03.157 0l4.176-1.592c.104-.027.157-.133.157-.239l-.001-10.112c-.003-.158-.068-.314-.288-.239zM8.614.53c1.592 0 2.87 1.3 2.87 2.92 0 3.104-2.322 4.67-2.87 5.015-.549-.318-2.872-1.91-2.872-5.016 0-1.62 1.279-2.92 2.872-2.92zM.522 6.82l3.654-1.407v9.527L.522 16.347V6.82zm4.176-1.407l.966.37c.756 1.832 2.219 2.84 2.689 3.106v7.431l-3.655-1.407v-9.5zm7.83 9.528l-3.653 1.407V8.917c.47-.266 1.93-1.274 2.688-3.105l.966-.371v9.5zM8.615 4.776c.73 0 1.305-.584 1.305-1.327s-.574-1.327-1.305-1.327-1.306.584-1.306 1.327.575 1.327 1.306 1.327zm0-2.123c.443 0 .783.345.783.796 0 .45-.34.796-.783.796a.776.776 0 0 1-.783-.796c0-.451.34-.796.783-.796z"/></svg>