<svg xmlns="http://www.w3.org/2000/svg" xmlns:xlink="http://www.w3.org/1999/xlink" width="108" height="26" viewBox="0 0 108 26">
    <defs>
        <path id="a" d="M0 .307v25.627h32.178V.307z"/>
    </defs>
    <g fill="none" fill-rule="evenodd">
        <g transform="translate(0 .074)">
            <mask id="b" fill="#fff">
                <use xlink:href="#a"/>
            </mask>
            <path fill="#141414" d="M32.178 24.966v.006a.621.621 0 0 1-.621.622h-9.873a.621.621 0 0 1-.621-.622v-.003c0-.278.184-.522.452-.598l2.017-.574a.804.804 0 0 0 .582-.772V8.655c0-.886-1.22-1.12-1.545-.297L15.8 25.428a.802.802 0 0 1-.745.506h-.504a.801.801 0 0 1-.74-.494L6.553 8.008c-.338-.81-1.541-.568-1.541.309V23.06c0 .36.24.676.586.773l1.937.54a.622.622 0 0 1-.167 1.22H.621a.621.621 0 0 1-.167-1.22l1.937-.54a.803.803 0 0 0 .587-.773V2.84c0-.36-.24-.676-.587-.773l-1.937-.54A.622.622 0 0 1 .621.308h7.583c.325 0 .618.196.741.497l6.657 16.273a.8.8 0 0 0 1.486-.007L23.574.812a.801.801 0 0 1 .745-.505h6.597c.342 0 .62.278.62.621v.034a.622.622 0 0 1-.413.586l-1.389.494a.802.802 0 0 0-.533.757v20.23c0 .357.235.671.577.77l1.953.57c.264.077.447.32.447.597" mask="url(#b)"/>
        </g>
        <path fill="#141414" d="M46.16 16.204c0-5.133-1.281-8.304-4.182-8.304-2.788 0-4.108 3.246-4.108 8.304 0 5.133 1.282 8.303 4.183 8.303 2.787 0 4.107-3.246 4.107-8.303m-13.188.566c0-6.19 3.542-10.039 9.08-10.039 5.35 0 9.005 3.434 9.005 8.906 0 6.19-3.427 10.04-9.08 10.04-5.35 0-9.005-3.435-9.005-8.907M53.209 25.677v-.453c0-.27.174-.508.43-.59l1.514-.481a.617.617 0 0 0 .43-.588v-12.76a.618.618 0 0 0-.52-.61l-1.334-.211a.617.617 0 0 1-.042-1.213L59.5 7.433a.617.617 0 0 1 .755.602v1.597c0 .57.705.83 1.082.401 1.771-2.01 3.26-2.774 4.646-2.774.903 0 2.033.34 2.033 1.925 0 1.092-.414 2.053-.812 2.666a.613.613 0 0 1-.808.207c-.8-.429-1.78-.797-2.787-.797-.936 0-1.976.241-3.184 1.514a.633.633 0 0 0-.17.43V23.55c0 .275.183.517.447.593l1.743.499a.618.618 0 0 1 .448.594v.44h-9.684zM75.248 13.487h5.595a.61.61 0 0 0 .61-.547c.03-.282.056-.59.056-.925 0-2.416-.527-4.076-2.6-4.076-1.938 0-3.676 1.45-4.265 4.815a.62.62 0 0 0 .604.733m-5.382 3.585c0-6.492 4.258-10.34 9.232-10.34 4.333 0 7.234 2.452 7.234 6.679 0 .258-.011.579-.026.858a.612.612 0 0 1-.612.576H74.462v.416c0 5.548 2.11 8.152 5.803 8.152 1.77 0 3.232-.493 4.83-1.59a.618.618 0 0 1 .87.164c.168.255.126.6-.105.798-1.945 1.671-4.443 2.892-7.403 2.892-5.388 0-8.591-2.793-8.591-8.605M104.15 14.337c-.482 0-.483.75 0 .75s.484-.75 0-.75M102.484 14.256c-.19.03-.505.135-.757-.08-.352.811-1.354 1.524-1.555.688.163-.432.397-.822.703-1.168.25-.328.58-.553.99-.673a.389.389 0 0 0-.009.101.327.327 0 0 0-.107.041c-.438.267-.4.778-.022 1.011 0 0 .28.19.757.08a7.26 7.26 0 0 0 .123-.674l.011-.092.005-.085.001-.018-.102.034c-.028.002-.05.011-.077.017a.33.33 0 0 0 .143-.215c.248-1.118-.91-1.21-1.61-.672-.777.599-1.917 1.992-1.64 3.071.393 1.541 2.507-.037 3.138-1.33l.008-.036"/>
        <path fill="#141414" d="M106.539 2.292c-.882 1.322-2.474 2.284-3.884 2.938-1.68.78-3.504 1.211-5.318 1.552l-.075.014c1.616-1.855 3.545-3.563 5.671-4.655a9.687 9.687 0 0 1 2.117-.8c.788-.192 2.346-.331 1.489.951m.85-1.403c-.42-.546-1.145-.553-1.77-.468-3.822.521-7.026 3.63-9.42 6.43l-.122.146c-1.51.22-3.058.272-4.484-.34-.465-.2-.87.484-.401.686 1.354.58 2.763.661 4.186.53-2.034 2.687-3.768 6.295-2.733 9.6.569 1.817 2.202 2.937 4.07 3.067 2.005.14 3.842-.966 5.168-2.382.35-.373-.212-.936-.562-.562-1.052 1.124-2.42 2.051-3.998 2.152-1.603.102-3.226-.694-3.827-2.24-1.17-3.01.631-6.644 2.405-9.024.187-.25.381-.501.58-.75l.22-.035c2.081-.342 4.173-.812 6.108-1.671 1.631-.724 3.397-1.825 4.416-3.335.354-.525.59-1.25.163-1.804"/>
        <path fill="#141414" d="M102.25 14.094c1.866-.093 3.567-.904 4.788-2.322.311-.362-.213-.89-.526-.527-1.092 1.269-2.587 2.021-4.261 2.104-.477.025-.48.77 0 .745"/>
    </g>
</svg>
