<svg xmlns="http://www.w3.org/2000/svg" xmlns:xlink="http://www.w3.org/1999/xlink" width="1280" height="440" viewBox="0 0 1280 440">
    <defs>
        <path id="a" d="M68.834.02V75.26H.637V.02h68.197z"/>
        <path id="c" d="M112.218 148.964H.046V.78h112.172v148.185z"/>
    </defs>
    <g fill="none" fill-rule="evenodd" opacity=".02">
        <path fill="#1E1E1E" d="M190.552 61.718c1.958-7.238-9.244-10.325-11.201-3.093-12.73 47.052-28.455 93.263-47.18 138.262-9.374 22.526-19.542 44.729-30.405 66.575-5.272 10.6-10.427 21.415-16.435 31.62-2.343 3.983-5.336 8.534-9.905 10.18-5.774 2.079-9.333-.93-10.434-6.549-2.513-12.85-1.102-27.333.16-40.255 1.447-14.811 4.1-29.466 6.73-44.101 1.323-7.358-8.659-10.196-11.2-3.094-6.738 18.843-13.54 37.735-22.669 55.578-4.331 8.464-9.178 16.682-14.728 24.406a132.813 132.813 0 0 1-9.2 11.399c-2.695 2.988-7.886 9.96-12.504 8.788-6.51-1.653-3.606-15.36-2.85-19.683a640.59 640.59 0 0 1 24.417-95.458c8.114-23.898 17.68-47.257 28.577-70.013 3.22-6.722-6.791-12.632-10.028-5.875-22.143 46.233-38.964 94.942-49.672 145.099-2.392 11.2-5.59 23.004-5.998 34.492-.273 7.684 1.498 16.722 8.547 21.035 9.86 6.032 19.842-1.638 26.437-8.749 7.647-8.247 14.32-17.424 20.107-27.063 4.417-7.358 8.334-14.985 11.92-22.771-.935 11.264-1.126 22.548-.001 33.773 1.045 10.414 5.667 20.711 17.532 21.327 11.284.586 19.45-7.53 24.791-16.592 13.653-23.16 24.877-48.224 35.842-72.743a1135.94 1135.94 0 0 0 31.015-76.668c10.705-29.528 20.132-59.506 28.335-89.827M197.293 200.94a50.18 50.18 0 0 1-12.777 11.869c3.372-4.244 7.884-9.287 12.777-11.87m79.119 20.13c2.182-5.094 1.18-11.184-3.595-14.44-4.663-3.177-10.607-1.962-15.4.213-3.058 1.39-6.093 2.98-9.095 4.692 24.785-36.866 46.602-75.68 65.132-116.158 3.135-6.851-5.603-11.934-10.03-5.875l-74.77 102.364c-11.7 16.02-22.695 33.059-35.649 48.094-5.203 6.04-11.237 11.926-18.815 14.82-2.565.979-7.523 3.03-8.275-.549-.758-3.622 1.886-9.766 2.998-13.193a83.25 83.25 0 0 1 4.286-10.591c17.443-4.567 32.361-16.907 39.978-33.368 1.633-3.534.321-7.259-3.471-8.55-18.758-6.385-36.118 16.893-44.381 31.91-2.308 1.021-3.12 3.275-2.798 5.476-6.478 13.769-16.612 43.2 6.89 41.857 20.28-1.16 34.04-21.805 44.796-36.53l46.901-64.211 8.409-11.51a809.944 809.944 0 0 1-49.585 76.405c-7.518 6.835-13.942 14.744-18.281 24.067-2.55 5.48 4.717 12.633 9.121 7.05a839.378 839.378 0 0 0 17.356-22.813c5.634-5.11 11.946-9.564 18.463-13.662 3.577-2.25 7.212-4.4 10.865-6.52 1.444-.838 2.907-1.788 4.419-2.5a13.425 13.425 0 0 1 2.937-1.08c1.661-.543 1.809-.215.44.984-1.614 3.804-7.648 6.812-10.954 8.727-4.084 2.365-8.366 4.113-12.875 5.476-7.138 2.156-4.096 13.393 3.087 11.22 11.22-3.39 26.942-10.24 31.896-21.805M381.38 213.905c18.842-4.732 35.755-15.368 48.297-29.96l-1.737 23.706c-.465 6.344 7.768 7.105 10.823 2.937l18.382-25.09c1.312-1.793 2.616-3.592 3.939-5.377.164-.23.34-.448.505-.675.29 1.584 1.173 3.505 1.507 4.745l2.124 7.936c.78 2.913 4.176 5.066 7.144 4.064 4.246-1.432 7.603-3.969 10.485-7.39 2.465-2.923 4.984-8.177 8.553-9.903 4.32-2.093 10.1 3.825 14.034 5.5 5.568 2.37 11.715 3.283 17.742 2.823 6.33-.482 12.044-2.118 17.263-4.596 25.064 7.253 36.413-28.856 43.291-46.829 11.06-28.907 20.872-58.277 29.495-88.003 2.089-7.206-9.115-10.283-11.202-3.095-7.167 24.713-15.148 49.18-24 73.34-1.733 4.73-3.483 9.465-5.26 14.19a6.285 6.285 0 0 0-1.288.38c-17.937 7.676-31.488 22.652-38.192 40.88-5.778 2.353-12.111 3.157-19.068 1.6-9.638-2.155-17.126-12.213-27.672-6.78-5.103 2.627-7.958 8.732-11.878 12.915-.919-4.245-2.003-8.546-4.021-11.945-3.047-5.13-9.316-5.762-13.8-2.163-5.507 4.418-9.52 12.222-13.67 17.886l-2.178 2.973c.521-7.134 1.046-14.268 1.568-21.4 3.425-3.995-.345-10.756-5.239-9.709-2.093-.157-4.224.661-5.29 2.764-.073.146-.156.283-.232.427-19.856 13.16-38.618 27.896-56.075 44.123-4.385 4.075.222 11.088 5.65 9.726M716.158 246.246c-5.403 5.426-34.73 26.25-33.858 6.876.311-6.939 4.24-13.11 8.139-18.59 4.69-6.588 10.019-12.715 15.769-18.395 8.426-8.326 17.84-15.606 27.958-21.704.71 18.854-3.275 37.021-18.008 51.813m73.343-40.021c-7.752 1.248 1.472-11.73 2.748-13.876l7.266-12.224c.015 3.523-.315 7.05-1.071 10.539-.985 4.545-3.134 14.626-8.943 15.56m-.19-31.679c-1.577 2.65-3.152 5.3-4.727 7.952-3.114 5.239-7.163 10.626-9.076 16.474-3.078 9.409 2.6 18.797 12.835 18.944 9.792.14 15.837-8.034 19.012-16.363 4.461-11.717 4.708-24.636 1.921-36.758-1.037-4.512-5.715-5.05-8.738-3.078-.101 0-.198-.01-.3-.003-19.62 1.364-38.635 6.364-56.269 14.514-4.451-26.106-14.305-51.634-13.468-78.43.545-17.448 6.653-37.635 22.322-47.325 12.67-7.832 32.646-8.19 42.264 4.763 4.411 5.943 14.498.145 10.03-5.873-16.868-22.716-51.518-19.71-69.192.471-23.054 26.324-18.024 63.304-10.551 94.57 2.859 11.965 6.01 24.687 7.681 37.373a166.046 166.046 0 0 0-22.437 14.96c-12.747 10.104-24.43 22.399-33.133 36.207-6.557 10.406-11.565 28.15.625 36.656 13.655 9.527 32.72-2.952 43.116-12.15 12.598-11.147 20.979-26.634 23.67-43.227 1.429-8.804 1.47-17.454.68-26.013 13.764-6.761 28.543-11.423 43.735-13.664M833.501 138.702c3.25-.55 6.483-1.166 9.703-1.832-3.825 32.881-5.535 66.096-16.236 97.693-2.407 7.108 8.808 10.16 11.2 3.093 11.34-33.48 12.586-68.75 16.941-103.524a273.317 273.317 0 0 0 20.216-5.966c7.046-2.379 4.023-13.622-3.088-11.221a274.358 274.358 0 0 1-15.401 4.7c.154-1.012.31-2.025.472-3.037 2.848-17.654 6.954-35.415 14.21-51.821 3.547-8.024 7.836-15.735 12.945-22.872 4.776-6.674 11.56-16.366 20.804-15.443 7.434.74 7.381-10.902 0-11.638-18.399-1.837-31.83 20.926-39.244 34.774-9.08 16.96-14.623 35.622-18.247 54.452-1.188 6.164-2.168 12.364-3.025 18.583a274.209 274.209 0 0 1-14.337 2.836c-7.354 1.248-4.236 12.463 3.087 11.223M901.835 69.754c-6.995 2.487-3.983 13.736 3.087 11.223a566.408 566.408 0 0 1 30.405-9.858l-9.714 50.832c-1.803 9.435-3.614 18.869-5.41 28.306-1.532 8.054-3.065 16.244-1.791 24.44 1.01 6.482 4.156 15.309 11.945 15.54 7.07.209 13.473-7.557 17.966-12.226 6.713-6.978 12.47-14.743 17.239-23.083.242 1.87.698 3.731 1.498 5.576 3.368 7.755 11.748 12.502 19.909 8.809 7.909-3.58 11.495-12.723 13.64-20.559.326-1.194.642-2.39.966-3.584 2.371 5.847 7.844 10.07 14.676 8.217 8.446-2.289 12.447-11.422 15.45-18.742 4.151-10.12 6.647-20.57 8.052-31.4.96-7.404-10.663-7.333-11.616 0-.862 6.647-2.379 13.215-4.433 19.59-1.807 5.607-3.816 12.992-7.98 17.369-2.03 2.134-2.926 2.278-3.75-.554-.738-2.537-.34-5.635-.386-8.252l-.403-22.858c-.115-6.487-9.68-7.995-11.409-1.547-2.37 8.838-4.739 17.677-7.11 26.515-1.916 7.153-2.958 16.245-7.472 22.362-4.507 6.105-8.127.948-8.61-4.69-.677-7.94 2.081-15.22-.594-23.1-1.847-5.439-9.415-5.604-11.2 0-5.456 17.117-15.017 32.626-28.018 45.031-1.365 1.302-2.835 2.493-4.193 3.798-2.217 2.13-1.478.97-2.254-1.794-1.145-4.079-.955-8.44-.474-12.612 1.184-10.28 3.722-20.507 5.664-30.664l12.272-64.21a568.079 568.079 0 0 1 18.007-4.538c7.276-1.7 4.197-12.925-3.088-11.222-4.18.979-8.343 2.015-12.498 3.088 3.037-15.888 6.072-31.777 9.108-47.665 1.399-7.318-9.792-10.453-11.2-3.094-3.446 18.039-6.894 36.077-10.341 54.114a567.224 567.224 0 0 0-35.94 11.442M1155.556 46.088c.699-1.382 1.492-2.69 2.354-3.937a320.29 320.29 0 0 1-3.46 16.87c-4.255-2.009-.805-9.162 1.106-12.933m20.295 8.95c-2.941.885-6.088 2.096-9.285 3.05 2.243-10.336 3.965-20.79 5.299-31.275.573-4.5-5.313-7.094-8.739-5.024-11.435 6.914-21.015 19.247-22.227 32.949-.78 8.823 4.157 13.59 10.747 15.395-3.384 12.447-7.658 24.825-15.093 35.482-6.364 9.12-15.753 17.366-26.73 20.14-6.849 1.729-9.137-2.913-9.276-9.184-.154-6.802 1.04-13.143-.832-19.842-1.562-5.595-9.577-5.474-11.2 0-2.743 9.246-5.455 18.905-11.128 26.857-2.408 3.375-5.404 6.414-8.892 8.667-2.484 1.605-8.183 4.765-11.35 3.76-2.117-.676-1.524-.842-1.033-2.934.555-2.367 1.78-4.764 2.825-6.944a76.04 76.04 0 0 1 6.36-10.876c4.966-7.057 11.26-13.117 18.37-17.972 6.141-4.193.337-14.28-5.862-10.05-10.539 7.199-19.469 16.406-25.935 27.46-4.784 8.18-14.216 25.194-2.016 31.443 10.128 5.189 23.738-2.035 31.072-8.98 3.777-3.576 6.759-7.721 9.223-12.183 1.713 5.526 5.462 10.627 11.193 12.348 13.14 3.95 29.144-7.545 37.645-16.453 11.065-11.59 17.597-26.526 22.168-41.701.861-2.856 1.652-5.73 2.413-8.612.39-.065.778-.135 1.164-.213 3.37-.686 6.64-1.811 9.93-2.8 2.112-.634 4.253-1.466 6.414-1.928 3.203-.683 2.023-.962 2.507 1.438 1.315 6.519-2.19 15.108-4.417 21.094-5.101 13.72-11.852 26.48-13.279 41.277-.72 7.452 10.9 7.402 11.616 0 1.303-13.507 8.202-25.665 12.865-38.183 3.416-9.175 9.214-26.605 1.47-35.048-4.49-4.896-10.49-2.81-15.987-1.158"/>
        <g transform="translate(1217.224 37.842)">
            <mask id="b" fill="#fff">
                <use xlink:href="#a"/>
            </mask>
            <path fill="#1E1E1E" d="M24.446 16.754c1.138-1.047 3.167-2.12 4.767-3.215-.297.57-.598 1.11-.91 1.477-1.688 1.972-3.722 3.6-5.958 4.9-.641.372-1.29.704-1.944 1.005a48.881 48.881 0 0 1 4.045-4.167m34.448 36.319c-8.084 7.998-20.05 12.593-31.363 9.597-11.055-2.929-16.682-13.748-15.24-24.752.146-1.118.383-2.22.67-3.305 6.74-.436 13.273-2.884 18.724-7.001 5.827-4.4 13.088-12.675 10.668-20.671C39.326-3.07 28-.558 21.614 4.109 14.902 9.018 9.064 15.365 5.238 22.79c-3.933.458-5.008 5.101-3.265 8.402-3.764 14.349.325 30.686 13.574 38.913 16.513 10.252 38.502 4.116 51.56-8.803 5.326-5.27-2.887-13.499-8.213-8.229" mask="url(#b)"/>
        </g>
        <path fill="#1E1E1E" d="M382.765 369.777c3.14-8.233 10.974-14.243 17.828-19.287.523-.384 1.129-.748 1.664-1.152-.397 1.288-.647 2.499-1.282 3.787-2.09 4.235-5.01 8.307-7.995 11.944a79.438 79.438 0 0 1-11.27 11.21c-.04-2.313.33-4.598 1.055-6.502m-91.72 38.29c-2.81 2.066-5.835 3.854-9.125 4.994-1.692.588-.024-.433.692-1.836.902-1.766 1.32-3.897 2.126-5.734 5.66-12.884 15.603-23.077 27.891-29.552-1.884 5.357-4.212 10.579-7.185 15.601-3.737 6.313-8.459 12.163-14.399 16.527m190.837-73.056c-2.133 7.729-4.192 15.482-6.412 23.186-1.833 6.361-4.103 14.264-9.957 18.13-3.839 2.536-10.572 3.455-13.042-1.363-2.928-5.703-1.807-12.32-5.707-17.83-2.349-3.316-6.013-3.636-9.122-1.179-8.597 6.8-17.194 13.598-25.791 20.396-5.663 4.478-16.189 15.443-24.317 11.28a8.716 8.716 0 0 1-.847-.514c9.977-7.61 19.15-17.607 24.766-28.938 3.867-7.803 3.682-22.477-8.588-21.432-5.672.484-10.777 5.568-14.995 8.993-4.974 4.035-9.606 8.57-13 14.052-4.39 7.095-5.94 15.781-3.72 23.723-7.505 4.207-17.916 7.89-25.119 1.407-5.499-4.95-6.611-13.627-6.971-20.598-.554-10.702.337-21.541.676-32.244l1.238-39.008c.216-6.852-9.324-7.506-11.409-1.548-8.087 23.114-7.806 48.692-13.45 72.436-1.495-.748-3.31-.924-5.195-.093-13.505 5.954-24.96 16.15-32.586 28.81-3.563 5.915-7.457 13.527-8.051 20.53-.613 7.23 4.871 12.013 11.812 11.547 13.255-.887 25.438-14.812 32.049-25.168 6.555-10.27 10.652-21.865 13.341-33.724.278 4.16.857 8.281 1.958 12.302 2.872 10.478 10.019 19.38 21.102 21.44 9.092 1.69 18.172-1.318 26.233-5.878 7.31 7.704 18.709 7.631 28.246 2.1 6.986-4.052 13.175-9.77 19.487-14.762l14.965-11.836c1.516 5.613 1.66 11.676 6.5 16.174 5.705 5.3 14.523 5.623 21.462 2.897 8.43-3.31 13.462-10.982 16.642-19.136 3.893-9.985 6.154-20.74 9.003-31.059 1.994-7.23-9.208-10.314-11.201-3.093M538.462 328.703c.57-1.016 3.425-5.475 5.092-3.45.96 1.168-4.211 6.457-5.006 7.272-.9.923-1.846 1.783-2.814 2.606.731-2.273 1.626-4.459 2.728-6.428m64.447-92.82a1554.555 1554.555 0 0 0-7.394 95.85c-2.011-1.327-4.669-1.425-6.748.963-9.347 10.735-20.09 20.262-32.302 27.618-4.912 2.958-12.762 7.397-18.407 3.815-4.23-2.682-4.941-8.588-4.856-13.407 4.72-2.453 9.101-5.58 12.932-9.351 4.905-4.826 10.506-11.811 8.703-19.216-1.608-6.608-8.546-9.887-14.878-8.615-11.497 2.311-16.509 17.031-17.937 29.358-5.595 1.91-11.587 2.7-17.616 2.316-7.464-.477-7.436 11.162 0 11.638 5.87.374 11.754-.232 17.397-1.72 1.643 14.501 12.413 24.887 27.907 20.873 9.246-2.394 17.531-8.464 25.005-14.18a151.148 151.148 0 0 0 20.332-18.736c-.284 7.328-.536 14.656-.716 21.99-.186 7.49 11.43 7.487 11.615 0a1554.259 1554.259 0 0 1 8.578-129.196c.807-7.435-10.814-7.378-11.615 0"/>
        <g transform="translate(631.709 290.571)">
            <mask id="d" fill="#fff">
                <use xlink:href="#c"/>
            </mask>
            <path fill="#1E1E1E" d="M93.052 39.72c-3.299 2.911-12.17 7.647-15.633 2.514-1.379-2.043-3.406-2.766-5.347-2.6l.548-8.305c1.41-.259 2.74-1.115 3.667-2.76C79.533 22.803 84 17.438 89.815 14.103c7.121-4.083 10.894 3.01 10.786 9.654-.099 6.074-3.021 11.97-7.549 15.964m-78.92 21.648c-5.06.52-1.615-8.953-.85-11.93a72.592 72.592 0 0 1 1.371-4.66c2.452.536 5.062.699 7.737.605.659 6.098-1.427 15.282-8.258 15.985M94.072.78C83.062.771 72.997 11.677 67.41 20.742c-1.098-.064-2.216.136-3.206.663-10.469 5.583-21.74 9.182-33.444 11.049-.274.044-.55.08-.823.122-2.164-3.493-5.12-6.459-8.88-8.43-6.066-3.18-14.37-2.203-16.759 5.054-.956 2.903-.578 5.775.652 8.262-1.6 4.175-2.89 8.469-3.783 12.865-1.398 6.88-2.614 15.284 3.697 20.184C16.148 79.27 30.12 66.647 33.158 55.76c1.062-3.815 1.294-7.916.754-11.91 2.434-.493 4.793-1.034 6.992-1.521 6.796-1.51 13.41-3.678 19.797-6.403l-4.897 74.319c-.598.669-1.028 1.583-1.193 2.77-1.4 10.13-1.84 20.134-.99 30.336.62 7.438 11.119 7.533 11.616 0 2.001-30.384 4.005-60.768 6.007-91.151 6.814 5.204 16.658 4.389 24.288-.001 9.952-5.728 16.529-16.952 16.684-28.442.14-10.368-6.458-22.97-18.144-22.978" mask="url(#d)"/>
        </g>
        <path fill="#1E1E1E" d="M1094.488 208.847c-17.399 11.483-37.805 15.67-57.704 20.984l2.568-34.489c.516-6.92-9.316-7.362-11.408-1.546l-15.82 44.007c-8.69 3.581-16.958 8.151-24.453 14.549-5.699 4.864 2.55 13.06 8.212 8.229 3.366-2.872 6.971-5.322 10.738-7.472-.594 1.655-1.19 3.311-1.786 4.966-3.44 9.57-6.271 19.794-11.01 28.83-2.06 3.927-4.555 7.69-8.218 10.283-5.318 3.764-7.85.35-10.814-4.145a134.255 134.255 0 0 1-7.294-12.506c-2.397-4.655-3.98-9.819-6.554-14.35-4.704-8.288-13.753-8.277-20.77-2.79-8.345 6.525-15.517 15.248-22.613 23.074a513.74 513.74 0 0 0-15.37 17.788c-.898-3.732-1.195-7.581-.923-11.628.29-4.287-5.194-7.414-8.738-5.024-4.157 2.803-7.186 6.46-9.922 10.63-2.32 3.538-4.268 8.15-7.633 10.85-3.18 2.55-6.421 1.01-8.023-2.017 6.64-5.673 10.908-14.17 10.363-23.218-.31-5.173-6.057-7.494-9.914-4.115-6.346 5.56-12.398 12.93-13.015 21.69-1.032.4-2.114.704-3.237.893-8.686 1.462-16.821-5.698-24.52-8.655-7.73-2.97-16.233-2.45-22.708 3.06-2.964 2.52-5.17 5.683-6.918 9.126-4.487-3.557-10.59-5.284-16.484-4.459-6.21.87-11.106 4.263-14.856 8.833l-1.393-9.52c-1.079-7.383-12.273-4.245-11.2 3.093 1.345 9.187 2.688 18.375 4.031 27.562.856 5.851 9.89 5.229 11.2 0 1.647-6.572 4.561-14.62 11.198-17.685 4.681-2.16 12.747-.097 12.719 5.993-.033 6.617 9.563 7.83 11.406 1.547 2.037-6.938 5.249-18.35 14.408-17.812 9.221.542 16.924 8.625 26.068 10.281 4.381.793 8.732.396 12.778-.918 2.29 4.244 6.014 7.667 10.744 8.918 12.56 3.325 17.37-6.778 23.104-15.433.972 4.243 2.529 8.36 4.64 12.333 1.62 3.043 6.807 4.078 9.123 1.178 7.298-9.14 14.869-18.052 22.762-26.681a506.875 506.875 0 0 1 12.056-12.735c2.251-2.295 8.141-10.525 11.61-8.287 1.272.823 2.35 5.434 2.987 6.882 1.115 2.523 2.3 5.016 3.564 7.469 2.517 4.892 5.29 9.717 8.444 14.228 4.834 6.914 11.243 12.13 20.15 9.326 18.291-5.759 23.613-31.104 29.204-46.652 2.03-5.651 4.062-11.301 6.093-16.952.88-.324 1.763-.644 2.65-.951l-4.309 57.88c-.48 6.462 10.304 8.039 11.41 1.546l1.659-9.757c.246-1.454-.001-2.739-.557-3.814 1.227-16.497 2.455-32.993 3.684-49.49 3.898-1.075 7.81-2.073 11.688-3.058 18.258-4.637 36.843-9.31 52.766-19.82 6.216-4.103.404-14.186-5.863-10.049"/>
    </g>
</svg>
