<svg xmlns="http://www.w3.org/2000/svg" width="89" height="45" viewBox="0 0 89 45"><g fill="#171717" fill-rule="evenodd"><path d="M55.119 42.655v.01c0 .588-.477 1.065-1.065 1.065h-16.91a1.065 1.065 0 0 1-1.065-1.065v-.004c0-.477.316-.896.774-1.025l3.456-.984c.589-.168.998-.707.998-1.322V14.714c0-1.516-2.09-1.917-2.649-.507L27.064 43.445a1.373 1.373 0 0 1-1.276.868h-.863a1.373 1.373 0 0 1-1.267-.846l-12.434-29.86c-.579-1.387-2.64-.973-2.64.53v25.252c0 .617.41 1.16 1.004 1.325l3.318.924a1.065 1.065 0 0 1-.286 2.092H1.064a1.065 1.065 0 0 1-.286-2.092l3.317-.924A1.376 1.376 0 0 0 5.1 39.389V4.757c0-.618-.41-1.159-1.005-1.325L.778 2.507A1.066 1.066 0 0 1 1.064.415h12.989c.556 0 1.058.337 1.27.854l11.403 27.874c.468 1.144 2.086 1.137 2.544-.01L40.381 1.28a1.373 1.373 0 0 1 1.275-.865h11.3c.588 0 1.064.477 1.064 1.065v.057c0 .45-.283.854-.707 1.004l-2.38.846a1.374 1.374 0 0 0-.913 1.297v34.654c0 .611.402 1.149.989 1.319l3.343.974c.454.133.767.55.767 1.024M82.355 24.32c-.826 0-.827 1.287 0 1.287.826 0 .828-1.286 0-1.286m-2.855-.138c-.324.05-.866.23-1.297-.138-.603 1.39-2.32 2.61-2.662 1.18a6.4 6.4 0 0 1 1.202-2.002 3.22 3.22 0 0 1 1.697-1.153.682.682 0 0 0-.016.173.569.569 0 0 0-.184.07c-.75.457-.685 1.333-.037 1.732 0 0 .48.325 1.298.137.084-.383.163-.766.21-1.154.006-.053.014-.105.018-.158.005-.049.006-.098.01-.146l.001-.03-.175.057c-.047.004-.087.02-.13.029a.572.572 0 0 0 .243-.368c.425-1.914-1.558-2.072-2.757-1.15-1.331 1.025-3.283 3.412-2.81 5.26.674 2.64 4.294-.064 5.376-2.277l.014-.062"/><path d="M86.446 3.689c-1.512 2.264-4.237 3.912-6.653 5.032-2.879 1.336-6.003 2.075-9.109 2.659l-.129.023C73.323 8.226 76.627 5.3 80.27 3.43a16.592 16.592 0 0 1 3.627-1.368c1.35-.33 4.017-.57 2.55 1.628m1.455-2.404c-.72-.936-1.96-.947-3.03-.801-6.547.892-12.035 6.219-16.135 11.013l-.211.25c-2.586.378-5.238.466-7.68-.582-.797-.342-1.49.83-.687 1.175 2.32.995 4.733 1.133 7.17.907-3.484 4.603-6.455 10.784-4.681 16.446.974 3.112 3.772 5.03 6.97 5.254 3.435.24 6.582-1.655 8.853-4.081.598-.639-.362-1.603-.962-.962-1.802 1.925-4.143 3.512-6.849 3.685-2.745.174-5.526-1.188-6.555-3.837-2.003-5.156 1.082-11.381 4.12-15.457.32-.43.653-.858.993-1.285l.376-.059c3.566-.586 7.15-1.392 10.464-2.863 2.794-1.24 5.82-3.127 7.564-5.712.607-.9 1.01-2.14.28-3.091"/><path d="M79.1 23.905c3.196-.16 6.11-1.549 8.201-3.979.533-.619-.365-1.525-.902-.902-1.87 2.173-4.43 3.462-7.299 3.606-.816.04-.821 1.316 0 1.275"/></g></svg>