<svg xmlns="http://www.w3.org/2000/svg" width="13" height="9" viewBox="0 0 13 9">
    <path fill="#3B84AF" fill-rule="nonzero" d="M11.709 0H1.29C.58 0 0 .618 0 1.377v6.246C0 8.383.58 9 1.291 9H11.71C12.42 9 13 8.382 13 7.623V1.377C13 .617 12.42 0 11.709 0zM8.804 4.18L12.459.989c.054.118.085.25.085.39v6.245a.931.931 0 0 1-.077.371L8.804 4.181zM11.709.487a.79.79 0 0 1 .447.14L6.5 5.564.845.625a.79.79 0 0 1 .447-.139h10.417zM.533 7.994a.94.94 0 0 1-.077-.372V1.377c0-.139.03-.271.085-.389l3.654 3.193L.533 7.994zm.758.52a.791.791 0 0 1-.461-.15L4.55 4.49 6.5 6.193 8.45 4.49l3.72 3.874a.793.793 0 0 1-.461.15H1.29z"/>
</svg>
