<svg xmlns="http://www.w3.org/2000/svg" width="25" height="15" viewBox="0 0 25 15">
    <path fill="#141414" fill-rule="nonzero" d="M14.99.393a.407.407 0 0 0-.32.247L9.127 14.097a.417.417 0 0 0 .217.526.417.417 0 0 0 .525-.217L15.411.95c.12-.258-.139-.6-.42-.556zM6.494 2.458L.161 7.208c-.194.147-.194.484 0 .63l6.332 4.75a.413.413 0 0 0 .588-.052.412.412 0 0 0-.117-.579L1.05 7.53l5.913-4.44a.408.408 0 0 0 .142-.458.408.408 0 0 0-.404-.26c-.096 0-.151.062-.21.087h.001zm11.083.631l5.912 4.44-5.912 4.429a.412.412 0 0 0-.118.578.413.413 0 0 0 .588.053l6.333-4.75c.193-.147.193-.484 0-.63l-6.333-4.75a.396.396 0 0 0-.26-.087c-.434.125-.402.524-.21.717z"/>
</svg>
