<svg xmlns="http://www.w3.org/2000/svg" width="18" height="16" viewBox="0 0 18 16">
    <g fill="none" fill-rule="evenodd">
        <path fill="#000" d="M11.68 2.152h5.602V.538H11.68v1.614zm-11.11 0h10.54V.538H.57v1.614zM17.567 0H.285A.277.277 0 0 0 0 .269v14.708c0 .149.128.27.285.27h17.282c.158 0 .285-.121.285-.27v-2.87a.277.277 0 0 0-.285-.269.277.277 0 0 0-.285.27v2.6H.57V2.69h16.712v8.341c0 .149.128.27.285.27.158 0 .285-.121.285-.27V.269A.277.277 0 0 0 17.567 0z"/>
        <path fill="#000" d="M11.705 5.313a.277.277 0 0 0-.284-.27H6.43a.277.277 0 0 0-.284.27c0 .149.127.269.285.269h4.989c.157 0 .284-.12.284-.269M10.651 6.39a.277.277 0 0 0-.285-.27h-2.88a.277.277 0 0 0-.285.27c0 .148.128.268.285.268h2.88c.158 0 .285-.12.285-.269"/>
        <path stroke="#000" stroke-width=".5" d="M2.142 8.589h5.807v4.861H2.142z"/>
    </g>
</svg>
