<svg xmlns="http://www.w3.org/2000/svg" width="21" height="20" viewBox="0 0 21 20">
    <g fill="#141414" fill-rule="nonzero">
        <path d="M20.55 5.464a.342.342 0 0 0-.282-.15H5.908c-.02 0-.036.01-.054.011l-.898-3.6C4.63.443 3.688.16 3.256.185H.438a.342.342 0 0 0 0 .685h2.838c.08 0 .76.004 1.02 1.023l3.074 12.34c.015.067.372 1.681 1.702 1.681l8.12-.002a.342.342 0 0 0 0-.684H9.068c-.776 0-1.03-1.13-1.037-1.151l-.31-1.243h9.81c.14 0 .265-.085.317-.215l2.735-6.838a.333.333 0 0 0-.033-.317zm-3.25 6.688H7.618c-.02 0-.04.01-.06.012L6.021 5.998h13.743L17.3 12.152zM9.497 16.255c-1.038 0-1.88.844-1.88 1.881s.842 1.881 1.88 1.881c1.038 0 1.88-.843 1.88-1.88s-.842-1.882-1.88-1.882zm0 3.078a1.199 1.199 0 0 1 0-2.395 1.198 1.198 0 0 1 0 2.395zM15.995 16.255c-1.038 0-1.88.844-1.88 1.881s.842 1.881 1.88 1.881c1.038 0 1.88-.843 1.88-1.88a1.885 1.885 0 0 0-1.88-1.882zm0 3.078a1.199 1.199 0 0 1 0-2.395 1.198 1.198 0 0 1 0 2.395z"/>
    </g>
</svg>
